<svg xmlns="http://www.w3.org/2000/svg" viewBox="0 0 16 16" width="16" height="16" shape-rendering="crispEdges" role="img">
  <rect x="6" y="1" width="2" height="1" fill="#4C8A2F"/>
  <rect x="9" y="1" width="2" height="1" fill="#4C8A2F"/>
  <rect x="5" y="2" width="6" height="1" fill="#4C8A2F"/>
  <rect x="6" y="3" width="4" height="1" fill="#4C8A2F"/>
  <rect x="5" y="4" width="1" height="1" fill="#1A1512"/>
  <rect x="6" y="4" width="2" height="1" fill="#E07B39"/>
  <rect x="8" y="4" width="1" height="1" fill="#5A3E2A"/>
  <rect x="9" y="4" width="1" height="1" fill="#1A1512"/>
  <rect x="5" y="5" width="1" height="1" fill="#1A1512"/>
  <rect x="6" y="5" width="2" height="1" fill="#E07B39"/>
  <rect x="8" y="5" width="1" height="1" fill="#5A3E2A"/>
  <rect x="9" y="5" width="1" height="1" fill="#1A1512"/>
  <rect x="6" y="6" width="1" height="1" fill="#1A1512"/>
  <rect x="7" y="6" width="1" height="1" fill="#E07B39"/>
  <rect x="8" y="6" width="1" height="1" fill="#5A3E2A"/>
  <rect x="9" y="6" width="1" height="1" fill="#1A1512"/>
  <rect x="6" y="7" width="1" height="1" fill="#1A1512"/>
  <rect x="7" y="7" width="1" height="1" fill="#E07B39"/>
  <rect x="8" y="7" width="1" height="1" fill="#5A3E2A"/>
  <rect x="9" y="7" width="1" height="1" fill="#1A1512"/>
  <rect x="7" y="8" width="1" height="1" fill="#1A1512"/>
  <rect x="8" y="8" width="1" height="1" fill="#E07B39"/>
  <rect x="9" y="8" width="1" height="1" fill="#5A3E2A"/>
  <rect x="7" y="9" width="1" height="1" fill="#1A1512"/>
  <rect x="8" y="9" width="1" height="1" fill="#E07B39"/>
  <rect x="9" y="9" width="1" height="1" fill="#5A3E2A"/>
  <rect x="7" y="10" width="1" height="1" fill="#1A1512"/>
  <rect x="8" y="10" width="1" height="1" fill="#A96C35"/>
  <rect x="9" y="10" width="1" height="1" fill="#5A3E2A"/>
  <rect x="8" y="11" width="2" height="1" fill="#1A1512"/>
</svg>
